<?xml version="1.0" encoding="iso-8859-1"?>
<!-- Generator: Adobe Illustrator 16.0.0, SVG Export Plug-In . SVG Version: 6.00 Build 0)  -->
<!DOCTYPE svg PUBLIC "-//W3C//DTD SVG 1.1//EN" "http://www.w3.org/Graphics/SVG/1.1/DTD/svg11.dtd">
<svg version="1.1" id="Capa_1" xmlns="http://www.w3.org/2000/svg" xmlns:xlink="http://www.w3.org/1999/xlink" x="0px" y="0px"
	 width="387.2px" height="387.2px" viewBox="0 0 387.2 387.2" style="enable-background:new 0 0 387.2 387.2;" xml:space="preserve"
	>
<g>
	<g>
		<g id="Layer_5_70_">
			<g>
				<path d="M321.342,231.438c1.247,18.164,16.82,29.531,34.985,28.283c18.165-1.246,32.041-14.633,30.795-32.798
					s-36.318-63.804-36.542-50.949C350.271,193.849,320.095,213.273,321.342,231.438z"/>
				<path d="M123.587,31.759c-4.533-2.444-10.243-0.734-12.688,3.799L1.115,239.19c-2.444,4.534-0.734,10.243,3.799,12.688
					l192.092,103.562c4.534,2.444,10.243,0.734,12.688-3.799l96.69-173.578c2.443-4.533,36.644-26.883,36.644-26.883
					c4.143-3.061,3.82-7.565-0.712-10.01L123.587,31.759z"/>
			</g>
		</g>
	</g>
</g>
<g>
</g>
<g>
</g>
<g>
</g>
<g>
</g>
<g>
</g>
<g>
</g>
<g>
</g>
<g>
</g>
<g>
</g>
<g>
</g>
<g>
</g>
<g>
</g>
<g>
</g>
<g>
</g>
<g>
</g>
</svg>
