<?xml version="1.0" encoding="UTF-8" standalone="no"?>
<!-- Created with Inkscape (http://www.inkscape.org/) -->

<svg
   xmlns:dc="http://purl.org/dc/elements/1.1/"
   xmlns:cc="http://creativecommons.org/ns#"
   xmlns:rdf="http://www.w3.org/1999/02/22-rdf-syntax-ns#"
   xmlns:svg="http://www.w3.org/2000/svg"
   xmlns="http://www.w3.org/2000/svg"
   xmlns:sodipodi="http://sodipodi.sourceforge.net/DTD/sodipodi-0.dtd"
   xmlns:inkscape="http://www.inkscape.org/namespaces/inkscape"
   width="400"
   height="400"
   id="svg2"
   version="1.1"
   inkscape:version="0.48.4 r9939"
   sodipodi:docname="HELP.svg">
  <defs
     id="defs4" />
  <sodipodi:namedview
     id="base"
     pagecolor="#ffffff"
     bordercolor="#666666"
     borderopacity="1.0"
     inkscape:pageopacity="0.0"
     inkscape:pageshadow="2"
     inkscape:zoom="1.3"
     inkscape:cx="200"
     inkscape:cy="204.82571"
     inkscape:document-units="px"
     inkscape:current-layer="layer1"
     showgrid="false"
     inkscape:window-width="1280"
     inkscape:window-height="737"
     inkscape:window-x="-8"
     inkscape:window-y="-8"
     inkscape:window-maximized="1" />
  <metadata
     id="metadata7">
    <rdf:RDF>
      <cc:Work
         rdf:about="">
        <dc:format>image/svg+xml</dc:format>
        <dc:type
           rdf:resource="http://purl.org/dc/dcmitype/StillImage" />
        <dc:title />
      </cc:Work>
    </rdf:RDF>
  </metadata>
  <g
     inkscape:label="Layer 1"
     inkscape:groupmode="layer"
     id="layer1"
     transform="translate(0,-652.36218)">
    <g
       style="font-size:300px;font-style:normal;font-variant:normal;font-weight:normal;font-stretch:normal;text-align:center;line-height:125%;letter-spacing:0px;word-spacing:0px;text-anchor:middle;fill:#000000;fill-opacity:1;stroke:none;font-family:Rockwell;-inkscape-font-specification:Rockwell"
       id="text2985">
      <path
         d="m 199.15715,932.34784 -25.14648,0 -5.85938,-107.91016 c 7.64965,1.95333 15.29938,2.92989 22.94922,2.92969 21.32148,2e-4 36.70233,-5.37089 46.14258,-16.11328 9.43994,-10.74196 14.15998,-23.51864 14.16015,-38.33008 -1.7e-4,-17.25233 -5.08642,-30.63937 -15.25879,-40.16113 -10.17267,-9.52119 -23.07142,-14.28192 -38.69628,-14.28223 -19.04307,3.1e-4 -33.16252,5.45278 -42.3584,16.35742 -9.19603,10.90523 -13.79401,24.49571 -13.79395,40.77149 -6e-5,3.41821 0.0813,7.40584 0.24414,11.96289 l -45.654294,0 c -0.162776,-4.39429 -0.244156,-8.13778 -0.244141,-11.23047 -1.5e-5,-33.3656 9.887675,-57.9424 29.663085,-73.73047 19.77533,-15.78742 43.33487,-23.68129 70.67871,-23.68164 32.87746,3.5e-4 58.34944,8.83009 76.41602,26.48926 18.06619,17.6598 27.09939,40.89383 27.09961,69.70215 -2.2e-4,27.83225 -8.58583,50.04902 -25.75684,66.65039 -17.1714,16.60173 -37.39436,24.9025 -60.66894,24.90234 -1.7905,1.6e-4 -4.39466,-0.0812 -7.8125,-0.24414 z m -42.72461,91.55276 0,-60.05862 59.81445,0 0,60.05862 z"
         style="font-size:500px"
         id="path2993" />
    </g>
  </g>
</svg>
